# xmcd
#
# Track frame offsets: 
#        150
#        11617
#        28487
#        49262
#        69371
#        88048
#        108637
#        112027
#        129789
#        141928
#        157168
#        174213
#
# Disc length: 2550 seconds
#
# Revision: 0
# Processed by: cddbd v1.5.2PL0 Copyright (c) Steve Scherf et al.
# Submitted via: ExactAudioCopyFreeDBPlugin 1.0
#
DISCID=a509f40c
DTITLE=Tinashe - Reverie
DYEAR=2012
DGENRE=R&B
TTITLE0=Fear Not
TTITLE1=Stargazing
TTITLE2=Yours
TTITLE3=Slow
TTITLE4=Another Me
TTITLE5=Come When I Call
TTITLE6=Illusions
TTITLE7=Reverie
TTITLE8=I'm Selfish
TTITLE9=Ecstasy
TTITLE10=Who Am I Working For?
TTITLE11=Let You Love Me (XXYYXX Remix)
EXTD=
EXTT0=
EXTT1=
EXTT2=
EXTT3=
EXTT4=
EXTT5=
EXTT6=
EXTT7=
EXTT8=
EXTT9=
EXTT10=
EXTT11=
PLAYORDER=
